<?xml version="1.0" encoding="UTF-8" standalone="no"?>
<!DOCTYPE svg PUBLIC "-//W3C//DTD SVG 1.1//EN" "http://www.w3.org/Graphics/SVG/1.1/DTD/svg11.dtd">
<svg xmlns="http://www.w3.org/2000/svg" xmlns:xlink="http://www.w3.org/1999/xlink" version="1.1" width="878.7402pt" height="368.5039pt" viewBox="0 0 878.7402 368.5039">
<g enable-background="new">
<clipPath id="cp0">
<path transform="matrix(1,0,0,-1,0,368.5039)" d="M 0 0 L 878.7402 0 L 878.7402 368.5039 L 0 368.5039 Z "/>
</clipPath>
<g clip-path="url(#cp0)">
<path transform="matrix(1,0,0,-1,0,368.5039)" d="M 0 0 L 878.7402 0 L 878.7402 368.5039 L 0 368.5039 Z " fill="#ffffff"/>
<path transform="matrix(1,0,0,-1,0,368.5039)" d="M 0 0 L 878.7402 0 L 878.7402 368.5039 L 0 368.5039 Z " fill="#ffffff"/>
<path transform="matrix(1,0,0,-1,0,368.5039)" d="M 250.9863 297.6045 L 172.1103 310.0425 L 93.23328 297.6045 L 93.30728 277.4795 L 250.9123 277.4795 Z M 250.9863 297.6045 " fill="#fed37f"/>
<path stroke-width="1" stroke-linecap="butt" stroke-miterlimit="10" stroke-linejoin="miter" fill="none" stroke="#000000" d="M 250.9863 70.89947 L 172.1103 58.46147 L 93.23328 70.89947 L 93.30728 91.02447 L 250.9123 91.02447 Z M 250.9863 70.89947 "/>
<text xml:space="preserve" transform="matrix(1 0 0 1 0 0)" font-size="14" font-family="Times"><tspan y="82.8332" x="129.7203 133.6095 140.6095 146.8227 153.8227 157.71189 161.60108 168.60108 174.04988 177.93907 181.82826 185.71746 192.71746 196.60665 200.49584 207.49584">loan:institution</tspan></text>
<path stroke-width="1" stroke-linecap="butt" stroke-miterlimit="10" stroke-linejoin="miter" fill="none" stroke="#c0c0c0" d="M 181.4473 16.96613 L 54.44728 16.96613 L 54.44728 42.68713 L 187.4473 42.68713 L 187.4473 21.25297 Z M 181.4473 16.96613 "/>
<path stroke-width="1" stroke-linecap="butt" stroke-miterlimit="10" stroke-linejoin="miter" fill="none" stroke="#c0c0c0" d="M 181.4473 16.96613 L 181.4473 22.96613 "/>
<path stroke-width="1" stroke-linecap="butt" stroke-miterlimit="10" stroke-linejoin="miter" fill="none" stroke="#c0c0c0" d="M 187.4473 22.96613 L 181.4473 22.96613 "/>
<text xml:space="preserve" transform="matrix(1 0 0 1 0 0)" font-size="10" font-family="Times"><tspan y="32.96613" x="64.94728 69.94728 73.27728 78.27728 83.27728 86.05528 88.83328 93.83328 98.83328">prov:type</tspan></text>
<text xml:space="preserve" transform="matrix(1 0 0 1 0 0)" font-size="10" font-family="Times"><tspan y="32.96613" x="105.0473 110.0473 113.377307 118.377307 123.377307 126.155307 133.3773 136.53131 141.53131 145.96932 150.96932 153.74732 158.18532 162.62332 165.40132 168.17932 173.17932">prov:Organization</tspan></text>
<path stroke-width="1" stroke-linecap="butt" stroke-dasharray="4,4" stroke-miterlimit="10" stroke-linejoin="miter" fill="none" stroke="#c0c0c0" d="M 135.5962 42.68713 L 156.3881 60.94068 "/>
<path transform="matrix(1,0,0,-1,0,368.5039)" d="M 302.1488 229.6813 L 172.1098 242.1193 L 42.07078 229.6813 L 42.19278 209.5563 L 302.0278 209.5563 Z M 302.1488 229.6813 " fill="#fed37f"/>
<path stroke-width="1" stroke-linecap="butt" stroke-miterlimit="10" stroke-linejoin="miter" fill="none" stroke="#000000" d="M 302.1488 138.8226 L 172.1098 126.3846 L 42.07078 138.8226 L 42.19278 158.9476 L 302.0278 158.9476 Z M 302.1488 138.8226 "/>
<text xml:space="preserve" transform="matrix(1 0 0 1 0 0)" font-size="14" font-family="Times"><tspan y="149.7449" x="95.50178 101.71498 108.71498 112.60418 123.49338 129.70658 135.91977 142.91977 146.80896 153.80896 160.02216 163.91135 170.91135 177.91135 184.91135 191.91135 198.91135 205.91135 212.91135 219.12454 226.12454 233.12454 239.33774">ex:machine/98448dbeddc6</tspan></text>
<text xml:space="preserve" transform="matrix(1 0 0 1 0 0)" font-size="10" font-family="Times"><tspan y="116.7988" x="85.68605 90.124057 94.56206 97.34006 101.77806 106.77806 114.00006 119.00006 125.67006 130.10807 135.10807 139.54607 142.32407 145.65407 152.87607">actedOnBehalfOf</tspan></text>
<path stroke-width="1" stroke-linecap="butt" stroke-miterlimit="10" stroke-linejoin="miter" fill="none" stroke="#c0c0c0" d="M 315.0253 282.3668 L 315.0253 288.3668 "/>
<path stroke-width="1" stroke-linecap="butt" stroke-miterlimit="10" stroke-linejoin="miter" fill="none" stroke="#c0c0c0" d="M 321.0253 288.3668 L 315.0253 288.3668 "/>
<path stroke-width="1" stroke-linecap="butt" stroke-miterlimit="10" stroke-linejoin="miter" fill="none" stroke="#c0c0c0" d="M 315.1098 282.2846 L 23.10978 282.2846 L 23.10978 352.2846 L 321.1098 352.2846 L 321.1098 288.2846 Z M 315.1098 282.2846 "/>
<text xml:space="preserve" transform="matrix(1 0 0 1 0 0)" font-size="10" font-family="Times"><tspan y="296.7846" x="33.05509 38.05509 41.385095 46.385095 51.385095 54.163095 56.941095 61.941095 66.94109">prov:type</tspan></text>
<text xml:space="preserve" transform="matrix(1 0 0 1 0 0)" font-size="10" font-family="Times"><tspan y="296.7846" x="146.0551 151.0551 154.3851 159.3851 164.3851 167.1631 172.7251 177.7251 181.0551 183.8331 191.0551 195.4931 198.8231 203.26111 210.48311 215.48311 219.92111 224.92111">prov:SoftwareAgent</tspan></text>
<text xml:space="preserve" transform="matrix(1 0 0 1 0 0)" font-size="10" font-family="Times"><tspan y="308.7846" x="32.73509 35.51309 40.51309 43.29109 51.06909 55.507097 59.9451 64.9451 67.7231 72.7231 77.1611 82.1611 87.1611 92.1611 94.9391 99.9391 104.9391 109.9391 114.9391 119.9391 124.377109 127.70711 131.5991 134.3771 139.3771">ln:machine_python_version</tspan></text>
<text xml:space="preserve" transform="matrix(1 0 0 1 0 0)" font-size="10" font-family="Times"><tspan y="308.7846" x="146.0551 151.0551 153.5551 158.5551 161.0551">3.6.8</tspan></text>
<text xml:space="preserve" transform="matrix(1 0 0 1 0 0)" font-size="10" font-family="Times"><tspan y="320.7846" x="33.05509 35.83309 40.83309 43.61109 51.38909 55.827096 60.2651 65.2651 68.0431 73.0431 77.4811 82.4811 85.811107 90.24911 93.02711 97.46511 101.903118 105.79511">ln:machine_release</tspan></text>
<text xml:space="preserve" transform="matrix(1 0 0 1 0 0)" font-size="10" font-family="Times"><tspan y="320.7846" x="146.0551 151.0551 153.5551 158.5551 163.5551 166.0551 171.0551 174.3851 179.3851 184.3851 189.3851 191.8851 196.8851 199.3851 204.3851 206.8851 211.3231 214.1011 219.1011 221.6011 226.6011 231.6011 236.6011 241.6011 246.6011">3.10.0-957.1.3.el7.x86_64</tspan></text>
<text xml:space="preserve" transform="matrix(1 0 0 1 0 0)" font-size="10" font-family="Times"><tspan y="332.7846" x="33.05509 35.83309 40.83309 43.61109 51.38909 55.827096 60.2651 65.2651 68.0431 73.0431 77.4811 82.4811 86.3731 91.3731 95.2651 98.0431 102.4811">ln:machine_system</tspan></text>
<text xml:space="preserve" transform="matrix(1 0 0 1 0 0)" font-size="10" font-family="Times"><tspan y="332.7846" x="146.0551 152.1631 154.9411 159.9411 164.9411">Linux</tspan></text>
<text xml:space="preserve" transform="matrix(1 0 0 1 0 0)" font-size="10" font-family="Times"><tspan y="344.7846" x="33.05509 35.83309 40.83309 43.61109 51.38909 55.827096 60.2651 65.2651 68.0431 73.0431 77.4811 82.4811 87.4811 91.919109 95.24911 99.141109 101.919109 106.919109">ln:machine_version</tspan></text>
<text xml:space="preserve" transform="matrix(1 0 0 1 0 0)" font-size="10" font-family="Times"><tspan y="344.7846" x="145.6251 150.6251 155.6251 158.1251 163.6871 172.5791 177.7741 180.0981 186.2061 191.2061 196.2061 198.7061 205.9281 210.9281 215.9281 218.4281 223.4281 228.4281 230.9281 235.9281 240.9281 243.7061 248.7061 253.7061 256.4841 261.4841 266.4841 268.9841 276.20613 282.3141 288.9841 291.4841 296.4841 301.4841 306.4841">#1 SMP Thu Nov 29 14:49:43 UTC 2018</tspan></text>
<path stroke-width="1" stroke-linecap="butt" stroke-dasharray="4,4" stroke-miterlimit="10" stroke-linejoin="miter" fill="none" stroke="#c0c0c0" d="M 172.1098 282.2846 L 172.1098 158.9476 "/>
<path transform="matrix(1,0,0,-1,0,368.5039)" d="M 354.9967 145.8193 L 485.6187 145.8193 L 485.6187 181.8193 L 354.9967 181.8193 Z " fill="#9fb1fc"/>
<path stroke-width="1" stroke-linecap="butt" stroke-miterlimit="10" stroke-linejoin="miter" fill="none" stroke="#0000ff" d="M 354.9967 186.6846 L 485.6187 186.6846 L 485.6187 222.6846 L 354.9967 222.6846 Z "/>
<text xml:space="preserve" transform="matrix(1 0 0 1 0 0)" font-size="14" font-family="Times"><tspan y="209.6846" x="363.1524 369.3656 376.3656 380.2548 386.468 390.35719 396.57038 402.0192 407.46803 411.3572 416.0192 423.0192 430.0192 433.9084 440.9084 447.12159 454.12159 459.5704 463.4596 470.4596">ex:classify_loans/48</tspan></text>
<path transform="matrix(1,0,0,-1,0,368.5039)" d="M 679.1681 224.1193 C 679.1681 234.0603 643.2701 242.1193 598.9861 242.1193 C 554.7031 242.1193 518.8051 234.0603 518.8051 224.1193 C 518.8051 214.1783 554.7031 206.1193 598.9861 206.1193 C 643.2701 206.1193 679.1681 214.1783 679.1681 224.1193 Z M 679.1681 224.1193 " fill="#fffc87"/>
<path stroke-width="1" stroke-linecap="butt" stroke-miterlimit="10" stroke-linejoin="miter" fill="none" stroke="#808080" d="M 679.1681 144.3846 C 679.1681 134.4436 643.2701 126.3846 598.9861 126.3846 C 554.7031 126.3846 518.8051 134.4436 518.8051 144.3846 C 518.8051 154.3256 554.7031 162.3846 598.9861 162.3846 C 643.2701 162.3846 679.1681 154.3256 679.1681 144.3846 Z M 679.1681 144.3846 "/>
<text xml:space="preserve" transform="matrix(1 0 0 1 0 0)" font-size="14" font-family="Times"><tspan y="149.3846" x="543.3932 550.3932 557.3932 561.2824 565.17166 572.17166 578.3848 585.3848 592.3848 597.0468 603.26 609.4732 613.3624 620.3624 625.0244 631.2376 636.6864 640.5756 647.5756">py:loan_features/48</tspan></text>
<path stroke-width="1" stroke-linecap="butt" stroke-miterlimit="10" stroke-linejoin="miter" fill="none" stroke="#8b0000" d="M 473.6447 186.6846 L 545.1925 162.5389 "/>
<path transform="matrix(1,0,0,-1,0,368.5039)" d="M 552.7725 208.5231 L 544.2333 208.8076 L 546.1518 203.1226 Z M 552.7725 208.5231 " fill="#8b0000"/>
<path stroke-width="1" stroke-linecap="butt" stroke-miterlimit="10" stroke-linejoin="miter" fill="none" stroke="#8b0000" d="M 552.7725 159.9808 L 544.2333 159.6964 L 546.1518 165.3814 Z M 552.7725 159.9808 "/>
<text fill="#ff0000" xml:space="preserve" transform="matrix(1 0 0 1 0 0)" font-size="10" font-family="Times"><tspan y="180.6846" x="462.3536 467.3536 471.24565 475.68363">used</tspan></text>
<text xml:space="preserve" transform="matrix(1 0 0 1 0 0)" font-size="10" font-family="Times"><tspan y="212.8539" x="258.2591 265.4811 269.9191 273.81114 281.03315 284.92518 288.8172 293.8172 298.2552 301.03318 305.47117 308.24916 312.68714 317.68714 326.73014 329.50813 332.2861">wasAssociatedWith</tspan></text>
<path stroke-width="1" stroke-linecap="butt" stroke-miterlimit="10" stroke-linejoin="miter" fill="none" stroke="#c0c0c0" d="M 564.8701 319.7216 L 340.8701 319.7216 L 340.8701 352.2846 L 570.8701 352.2846 L 570.8701 325.1488 Z M 564.8701 319.7216 "/>
<path stroke-width="1" stroke-linecap="butt" stroke-miterlimit="10" stroke-linejoin="miter" fill="none" stroke="#c0c0c0" d="M 564.8701 319.9603 L 564.8701 325.9603 "/>
<path stroke-width="1" stroke-linecap="butt" stroke-miterlimit="10" stroke-linejoin="miter" fill="none" stroke="#c0c0c0" d="M 570.8701 325.9603 L 564.8701 325.9603 "/>
<text xml:space="preserve" transform="matrix(1 0 0 1 0 0)" font-size="10" font-family="Times"><tspan y="333.5031" x="350.8291 355.8291 359.1591 364.1591 369.1591 371.93708 375.8291 378.6071 383.04508 386.37507 389.15306 394.91505 397.69303 405.471">prov:startTime</tspan></text>
<text xml:space="preserve" transform="matrix(1 0 0 1 0 0)" font-size="10" font-family="Times"><tspan y="333.5031" x="411.7491 416.7491 421.7491 426.7491 431.7491 435.0791 440.0791 445.0791 448.4091 453.4091 458.4091 464.51707 469.51707 474.51707 477.29505 482.29505 487.29505 490.07304 495.07304 500.07304 502.57304 507.57304 512.573 517.573 522.573 527.573 532.573 538.213 543.213 548.213 550.991 555.991">2019-07-03T20:53:21.605000+01:00</tspan></text>
<text xml:space="preserve" transform="matrix(1 0 0 1 0 0)" font-size="10" font-family="Times"><tspan y="345.5031" x="350.8691 355.8691 359.1991 364.1991 369.1991 371.97709 376.41508 381.41508 386.41508 392.17707 394.95506 402.73304">prov:endTime</tspan></text>
<text xml:space="preserve" transform="matrix(1 0 0 1 0 0)" font-size="10" font-family="Times"><tspan y="345.5031" x="411.8691 416.8691 421.8691 426.8691 431.8691 435.1991 440.1991 445.1991 448.52909 453.52909 458.52909 464.63706 469.63706 474.63706 477.41505 482.41505 487.41505 490.19303 495.19303 500.19303 502.69303 507.69303 512.32699 517.32699 522.32699 527.32699 532.32699 537.967 542.967 547.967 550.745 555.745">2019-07-03T20:53:21.611000+01:00</tspan></text>
<path stroke-width="1" stroke-linecap="butt" stroke-dasharray="4,4" stroke-miterlimit="10" stroke-linejoin="miter" fill="none" stroke="#c0c0c0" d="M 451.4609 319.7216 L 425.1823 222.6846 "/>
<path transform="matrix(1,0,0,-1,0,368.5039)" d="M 433.0671 252.5886 C 433.0671 262.5296 404.7221 270.5886 369.7571 270.5886 C 334.7921 270.5886 306.4481 262.5296 306.4481 252.5886 C 306.4481 242.6476 334.7921 234.5886 369.7571 234.5886 C 404.7221 234.5886 433.0671 242.6476 433.0671 252.5886 Z M 433.0671 252.5886 " fill="#fffc87"/>
<path stroke-width="1" stroke-linecap="butt" stroke-miterlimit="10" stroke-linejoin="miter" fill="none" stroke="#808080" d="M 433.0671 115.9153 C 433.0671 105.9743 404.7221 97.91534 369.7571 97.91534 C 334.7921 97.91534 306.4481 105.9743 306.4481 115.9153 C 306.4481 125.8563 334.7921 133.9153 369.7571 133.9153 C 404.7221 133.9153 433.0671 125.8563 433.0671 115.9153 Z M 433.0671 115.9153 "/>
<text xml:space="preserve" transform="matrix(1 0 0 1 0 0)" font-size="14" font-family="Times"><tspan y="120.9153" x="327.7677 331.6569 338.6569 344.8701 351.8701 355.75929 362.75929 366.64848 373.64848 379.86167 383.75086 387.64006 394.64006 400.85325 404.74244">loan:pipeline/1</tspan></text>
<text xml:space="preserve" transform="matrix(1 0 0 1 0 0)" font-size="10" font-family="Times"><tspan y="116.7988" x="480.7788 488.00083 492.4388 496.33085 503.55287 507.99085 511.32084 514.0988 519.0988 523.5368 528.5368 534.0988 537.42886 542.42886">wasDerivedFrom</tspan></text>
<text xml:space="preserve" transform="matrix(1 0 0 1 0 0)" font-size="10" font-family="Times"><tspan y="119.4153" x="652.2749 659.4969 663.9349 667.8269 675.0489 679.4869 682.8169 685.5949 690.5949 695.0329 700.0329 705.5949 708.9249 713.9249">wasDerivedFrom</tspan></text>
<path stroke-width="1" stroke-linecap="butt" stroke-miterlimit="10" stroke-linejoin="miter" fill="none" stroke="#c0c0c0" d="M 835.3424 149.1065 L 692.3424 149.1065 L 692.3424 216.0363 L 841.3424 216.0363 L 841.3424 154.0038 Z M 835.3424 149.1065 "/>
<path stroke-width="1" stroke-linecap="butt" stroke-miterlimit="10" stroke-linejoin="miter" fill="none" stroke="#c0c0c0" d="M 835.3424 149.1065 L 835.3424 155.1065 "/>
<path stroke-width="1" stroke-linecap="butt" stroke-miterlimit="10" stroke-linejoin="miter" fill="none" stroke="#c0c0c0" d="M 841.3424 155.1065 L 835.3424 155.1065 "/>
<text xml:space="preserve" transform="matrix(1 0 0 1 0 0)" font-size="10" font-family="Times"><tspan y="162.0714" x="702.419 707.419 710.749 715.749 720.749 723.52706 726.30508 731.30508 736.30508">prov:type</tspan></text>
<text xml:space="preserve" transform="matrix(1 0 0 1 0 0)" font-size="10" font-family="Times"><tspan y="162.0714" x="794.309 799.309 804.309 807.08706 812.64907 817.08706 820.41708 823.19509 827.63308">pd:Series</tspan></text>
<text xml:space="preserve" transform="matrix(1 0 0 1 0 0)" font-size="10" font-family="Times"><tspan y="174.0714" x="702.419 705.197 710.197 712.97506 717.413 720.19107 722.96908 726.2991 731.2991 736.2991 739.0771">ln:attr_dti</tspan></text>
<text xml:space="preserve" transform="matrix(1 0 0 1 0 0)" font-size="10" font-family="Times"><tspan y="174.0714" x="794.419 799.419 804.419 806.919 811.919">10.55</tspan></text>
<text xml:space="preserve" transform="matrix(1 0 0 1 0 0)" font-size="10" font-family="Times"><tspan y="186.0714" x="702.159 704.937 709.937 712.715 717.153 719.931 722.70907 726.03909 731.03909 735.47708 739.91506 743.24508 746.0231 748.8011 753.2391 757.1311 759.9091 764.9091 769.3471 772.6771 777.6771 780.45516 783.23318 788.23318">ln:attr_earliest_cr_line</tspan></text>
<text xml:space="preserve" transform="matrix(1 0 0 1 0 0)" font-size="10" font-family="Times"><tspan y="186.0714" x="794.419 799.419 804.419 809.419 814.419 816.919">2006.0</tspan></text>
<text xml:space="preserve" transform="matrix(1 0 0 1 0 0)" font-size="10" font-family="Times"><tspan y="198.0714" x="794.419 799.419 804.419 806.919">10.0</tspan></text>
<text xml:space="preserve" transform="matrix(1 0 0 1 0 0)" font-size="10" font-family="Times"><tspan y="210.0714" x="794.419">&#x2026;</tspan></text>
<text xml:space="preserve" transform="matrix(1 0 0 1 0 0)" font-size="10" font-family="Times"><tspan y="198.0714" x="702.4191 705.19717 710.19717 712.97518 717.41317 720.19119 722.9692 726.2992 731.2992 735.7372 743.5152 748.5152 753.5152 756.2932 760.7312 765.7312 770.7312 773.5092">ln:attr_emp_length</tspan></text>
<text xml:space="preserve" transform="matrix(1 0 0 1 0 0)" font-size="10" font-family="Times"><tspan y="210.0714" x="702.4191">&#x2026;</tspan></text>
<path stroke-width="1" stroke-linecap="butt" stroke-dasharray="4,4" stroke-miterlimit="10" stroke-linejoin="miter" fill="none" stroke="#c0c0c0" d="M 692.3424 165.6228 L 655.305 157.1969 "/>
<path transform="matrix(1,0,0,-1,0,368.5039)" d="M 674.3572 333.5378 C 674.3572 343.4788 640.6122 351.5378 598.9862 351.5378 C 557.3602 351.5378 523.6152 343.4788 523.6152 333.5378 C 523.6152 323.5968 557.3602 315.5378 598.9862 315.5378 C 640.6122 315.5378 674.3572 323.5968 674.3572 333.5378 Z M 674.3572 333.5378 " fill="#fffc87"/>
<path stroke-width="1" stroke-linecap="butt" stroke-miterlimit="10" stroke-linejoin="miter" fill="none" stroke="#808080" d="M 674.3572 34.96613 C 674.3572 25.02513 640.6122 16.96613 598.9862 16.96613 C 557.3602 16.96613 523.6152 25.02513 523.6152 34.96613 C 523.6152 44.90713 557.3602 52.96613 598.9862 52.96613 C 640.6122 52.96613 674.3572 44.90713 674.3572 34.96613 Z M 674.3572 34.96613 "/>
<text xml:space="preserve" transform="matrix(1 0 0 1 0 0)" font-size="14" font-family="Times"><tspan y="39.96613" x="547.276 551.1652 558.1652 564.3784 571.3784 575.26766 583.05447 589.26766 596.26766 603.26766 608.71646 614.9296 621.9296 626.5916 632.8048 636.69406 643.69406">loan:&#xfb01;co_score/48</tspan></text>
<path transform="matrix(1,0,0,-1,0,368.5039)" d="M 855.6304 333.5378 C 855.6304 343.4788 819.0774 351.5378 773.9864 351.5378 C 728.8954 351.5378 692.3424 343.4788 692.3424 333.5378 C 692.3424 323.5968 728.8954 315.5378 773.9864 315.5378 C 819.0774 315.5378 855.6304 323.5968 855.6304 333.5378 Z M 855.6304 333.5378 " fill="#fffc87"/>
<path stroke-width="1" stroke-linecap="butt" stroke-miterlimit="10" stroke-linejoin="miter" fill="none" stroke="#808080" d="M 855.6304 34.96613 C 855.6304 25.02513 819.0774 16.96613 773.9864 16.96613 C 728.8954 16.96613 692.3424 25.02513 692.3424 34.96613 C 692.3424 44.90713 728.8954 52.96613 773.9864 52.96613 C 819.0774 52.96613 855.6304 44.90713 855.6304 34.96613 Z M 855.6304 34.96613 "/>
<text xml:space="preserve" transform="matrix(1 0 0 1 0 0)" font-size="14" font-family="Times"><tspan y="39.96613" x="717.2208 721.11007 728.11007 734.32327 741.32327 745.21249 751.42568 758.42568 765.42568 769.3149 773.2041 779.4173 785.6305 789.5197 793.40896 800.40896 807.40896 812.8577 816.74697 823.74697">loan:applications/48</tspan></text>
<path transform="matrix(1,0,0,-1,0,368.5039)" d="M 505.4035 333.5378 C 505.4035 343.4788 465.8175 351.5378 416.9865 351.5378 C 368.1555 351.5378 328.5695 343.4788 328.5695 333.5378 C 328.5695 323.5968 368.1555 315.5378 416.9865 315.5378 C 465.8175 315.5378 505.4035 323.5968 505.4035 333.5378 Z M 505.4035 333.5378 " fill="#fffc87"/>
<path stroke-width="1" stroke-linecap="butt" stroke-miterlimit="10" stroke-linejoin="miter" fill="none" stroke="#808080" d="M 505.4035 34.96613 C 505.4035 25.02513 465.8175 16.96613 416.9865 16.96613 C 368.1555 16.96613 328.5695 25.02513 328.5695 34.96613 C 328.5695 44.90713 368.1555 52.96613 416.9865 52.96613 C 465.8175 52.96613 505.4035 44.90713 505.4035 34.96613 Z M 505.4035 34.96613 "/>
<text xml:space="preserve" transform="matrix(1 0 0 1 0 0)" font-size="14" font-family="Times"><tspan y="39.96613" x="355.1656 359.05479 366.05479 372.26799 379.26799 383.15718 389.37037 394.03236 400.24555 407.24555 411.13475 415.02394 422.02394 429.02394 432.91313 438.36195 442.25114 449.25114 453.91313 460.91313 464.8023 471.8023">loan:credit_history/48</tspan></text>
<path transform="matrix(1,0,0,-1,0,368.5039)" d="M 690.7602 101.8193 C 690.7602 111.7603 649.6712 119.8193 598.9862 119.8193 C 548.3012 119.8193 507.2122 111.7603 507.2122 101.8193 C 507.2122 91.8783 548.3012 83.8193 598.9862 83.8193 C 649.6712 83.8193 690.7602 91.8783 690.7602 101.8193 Z M 690.7602 101.8193 " fill="#fffc87"/>
<path stroke-width="1" stroke-linecap="butt" stroke-miterlimit="10" stroke-linejoin="miter" fill="none" stroke="#808080" d="M 690.7602 266.6846 C 690.7602 256.7436 649.6712 248.6846 598.9862 248.6846 C 548.3012 248.6846 507.2122 256.7436 507.2122 266.6846 C 507.2122 276.6256 548.3012 284.6846 598.9862 284.6846 C 649.6712 284.6846 690.7602 276.6256 690.7602 266.6846 Z M 690.7602 266.6846 "/>
<text xml:space="preserve" transform="matrix(1 0 0 1 0 0)" font-size="14" font-family="Times"><tspan y="271.6846" x="534.4517 540.6649 547.6649 551.55416 556.2161 562.4293 568.6425 575.6425 586.53176 597.42098 603.63418 610.63418 617.63418 623.84738 627.7366 631.6258 638.6258 645.6258 649.515 656.515">ex:recommendation/48</tspan></text>
<path stroke-width="1" stroke-linecap="butt" stroke-miterlimit="10" stroke-linejoin="miter" fill="none" stroke="#006400" d="M 553.8189 251.0119 L 481.535 225.93 "/>
<path transform="matrix(1,0,0,-1,0,368.5039)" d="M 473.9771 145.1964 L 480.5516 139.7397 L 482.5185 145.4081 Z M 473.9771 145.1964 " fill="#006400"/>
<path stroke-width="1" stroke-linecap="butt" stroke-miterlimit="10" stroke-linejoin="miter" fill="none" stroke="#006400" d="M 473.9771 223.3075 L 480.5516 228.7642 L 482.5185 223.0958 Z M 473.9771 223.3075 "/>
<text fill="#006400" xml:space="preserve" transform="matrix(1 0 0 1 0 0)" font-size="10" font-family="Times"><tspan y="249.7043" x="457.8029 465.0249 469.4629 473.35493 480.57695 485.01493 490.01493 494.4529 497.7829 502.2209 504.99888 509.43687 514.4369 521.1069">wasGeneratedBy</tspan></text>
<text xml:space="preserve" transform="matrix(1 0 0 1 0 0)" font-size="10" font-family="Times"><tspan y="240.7806" x="604.9285 612.1505 616.5885 620.4805 627.7025 632.1405 635.4705 638.24856 643.24856 647.6865 652.6865 658.24856 661.57858 666.57858">wasDerivedFrom</tspan></text>
<path stroke-width="1" stroke-linecap="butt" stroke-miterlimit="10" stroke-linejoin="miter" fill="none" stroke="#c0c0c0" d="M 849.6304 312.1766 L 590.6304 312.1766 L 590.6304 352.2846 L 855.6304 352.2846 L 855.6304 317.4081 Z M 849.6304 312.1766 "/>
<path stroke-width="1" stroke-linecap="butt" stroke-miterlimit="10" stroke-linejoin="miter" fill="none" stroke="#c0c0c0" d="M 849.6304 312.1766 L 849.6304 318.1766 "/>
<path stroke-width="1" stroke-linecap="butt" stroke-miterlimit="10" stroke-linejoin="miter" fill="none" stroke="#c0c0c0" d="M 855.6304 318.1766 L 849.6304 318.1766 "/>
<text xml:space="preserve" transform="matrix(1 0 0 1 0 0)" font-size="10" font-family="Times"><tspan y="323.1766" x="601.1304 606.1304 609.4604 614.4604 619.4604 622.2384 625.0164 630.0164 635.0164">prov:type</tspan></text>
<text xml:space="preserve" transform="matrix(1 0 0 1 0 0)" font-size="10" font-family="Times"><tspan y="323.1766" x="700.0904 702.8684 707.8684 710.6464 717.8684 722.8684 725.6464 730.6464 738.42446 742.8624 745.64047 750.0784 755.0784 761.1864 766.1864 770.6244 775.6244 782.2944 786.73239 791.17037 796.17037 803.94839 811.7264 816.16439 821.16439 826.16439 830.60238 833.3804 836.1584 841.1584">ln:AutomatedLoanRecommendation</tspan></text>
<text xml:space="preserve" transform="matrix(1 0 0 1 0 0)" font-size="10" font-family="Times"><tspan y="335.1766" x="600.9304 603.70846 608.70846 611.48648 616.48648 619.81649 624.81649 629.81649 634.25448 639.25448 642.0325 644.8105 647.5885 650.3665 655.3665 660.3665 664.8045 669.8045 674.2425 677.3965 682.3965 686.8345 691.8345 694.98849">ln:probability_chargeoff</tspan></text>
<text xml:space="preserve" transform="matrix(1 0 0 1 0 0)" font-size="10" font-family="Times"><tspan y="335.1766" x="700.1304 705.1304 707.6304 712.6304 717.6304 722.6304 727.6304 732.6304">0.354285</tspan></text>
<text xml:space="preserve" transform="matrix(1 0 0 1 0 0)" font-size="10" font-family="Times"><tspan y="347.1766" x="601.1304 603.9084 608.9084 611.6864 615.0164 619.4544 623.8924 628.8924 636.6704 644.4484 648.8864 653.8864 658.8864 663.3244 666.1024 668.88046 673.88046">ln:recommendation</tspan></text>
<text xml:space="preserve" transform="matrix(1 0 0 1 0 0)" font-size="10" font-family="Times"><tspan y="347.1766" x="700.1304 702.9084 707.9084 710.6864 715.1244 720.1244 725.1244 728.4544 733.4544 738.4544 742.8924">ln:approved</tspan></text>
<path stroke-width="1" stroke-linecap="butt" stroke-dasharray="4,4" stroke-miterlimit="10" stroke-linejoin="miter" fill="none" stroke="#c0c0c0" d="M 685.1481 312.1766 L 630.953 283.5626 "/>
<path stroke-width="1" stroke-linecap="butt" stroke-miterlimit="10" stroke-linejoin="miter" fill="none" stroke="#000000" d="M 598.9862 248.6846 L 598.9865 172.2846 "/>
<path transform="matrix(1,0,0,-1,0,368.5039)" d="M 598.9865 204.2193 L 595.9865 196.2193 L 601.9865 196.2193 Z M 598.9865 204.2193 "/>
<path stroke-width="1" stroke-linecap="butt" stroke-miterlimit="10" stroke-linejoin="miter" fill="none" stroke="#000000" d="M 598.9865 164.2846 L 595.9865 172.2846 L 601.9865 172.2846 Z M 598.9865 164.2846 "/>
<path stroke-width="1" stroke-linecap="butt" stroke-miterlimit="10" stroke-linejoin="miter" fill="none" stroke="#fed37f" d="M 354.9967 204.567 C 339.4769 202.9143 321.6798 200.0078 302.1488 195.1275 C 267.8699 186.5621 236.1084 173.8802 212.5564 163.131 "/>
<path transform="matrix(1,0,0,-1,0,368.5039)" d="M 205.3066 208.7534 L 211.2893 202.6536 L 213.8249 208.0915 Z M 205.3066 208.7534 " fill="#fed37f"/>
<path stroke-width="1" stroke-linecap="butt" stroke-miterlimit="10" stroke-linejoin="miter" fill="none" stroke="#fed37f" d="M 205.3066 159.7506 L 211.2893 165.8503 L 213.8249 160.4124 Z M 205.3066 159.7506 "/>
<path stroke-width="1" stroke-linecap="butt" stroke-miterlimit="10" stroke-linejoin="miter" fill="none" stroke="#c0c0c0" d="M 302.1488 195.1275 L 348.3971 140.9418 "/>
<path transform="matrix(1,0,0,-1,0,368.5039)" d="M 353.5907 233.647 L 346.1152 229.5097 L 350.6789 225.6145 Z M 353.5907 233.647 " fill="#c0c0c0"/>
<path stroke-width="1" stroke-linecap="butt" stroke-miterlimit="10" stroke-linejoin="miter" fill="none" stroke="#c0c0c0" d="M 353.5907 134.8569 L 346.1152 138.9942 L 350.6789 142.8894 Z M 353.5907 134.8569 "/>
<text fill="#696969" xml:space="preserve" transform="matrix(1 0 0 1 0 0)" font-size="10" font-family="Times"><tspan y="171.8846" x="328.5695 333.5695 336.34748 340.78547">plan</tspan></text>
<path stroke-width="1" stroke-linecap="butt" stroke-miterlimit="10" stroke-linejoin="miter" fill="none" stroke="#fed37f" d="M 172.1098 126.3846 L 172.1098 100.9245 "/>
<path transform="matrix(1,0,0,-1,0,368.5039)" d="M 172.1098 275.5795 L 169.1098 267.5795 L 175.1098 267.5795 Z M 172.1098 275.5795 " fill="#fed37f"/>
<path stroke-width="1" stroke-linecap="butt" stroke-miterlimit="10" stroke-linejoin="miter" fill="none" stroke="#fed37f" d="M 172.1098 92.92447 L 169.1098 100.9245 L 175.1098 100.9245 Z M 172.1098 92.92447 "/>
<path stroke-width="1" stroke-linecap="butt" stroke-miterlimit="10" stroke-linejoin="miter" fill="none" stroke="#000000" d="M 578.6826 126.9667 C 560.1895 111.6925 531.1557 89.10876 500.4864 70.67035 C 489.8569 64.27992 480.0614 59.00691 471.2078 54.66219 "/>
<path transform="matrix(1,0,0,-1,0,368.5039)" d="M 463.9747 317.261 L 469.9252 311.1297 L 472.4894 316.5542 Z M 463.9747 317.261 "/>
<path stroke-width="1" stroke-linecap="butt" stroke-miterlimit="10" stroke-linejoin="miter" fill="none" stroke="#000000" d="M 463.9747 51.24294 L 469.9252 57.37419 L 472.4894 51.94976 Z M 463.9747 51.24294 "/>
<path stroke-width="1" stroke-linecap="butt" stroke-miterlimit="10" stroke-linejoin="miter" fill="none" stroke="#000000" d="M 602.1848 126.3987 C 605.0473 109.8266 609.2027 84.5373 611.9374 62.48237 "/>
<path transform="matrix(1,0,0,-1,0,368.5039)" d="M 612.8612 313.9647 L 608.9571 306.3649 L 614.917 305.6717 Z M 612.8612 313.9647 "/>
<path stroke-width="1" stroke-linecap="butt" stroke-miterlimit="10" stroke-linejoin="miter" fill="none" stroke="#000000" d="M 612.8612 54.5392 L 608.9571 62.13907 L 614.917 62.83221 Z M 612.8612 54.5392 "/>
<path stroke-width="1" stroke-linecap="butt" stroke-miterlimit="10" stroke-linejoin="miter" fill="none" stroke="#000000" d="M 622.1236 127.1454 C 641.7905 112.7708 671.3523 91.80107 700.2128 73.75606 C 711.5357 66.6764 721.5347 60.80724 730.2238 55.96494 "/>
<path transform="matrix(1,0,0,-1,0,368.5039)" d="M 737.2452 316.3689 L 728.7855 315.1717 L 731.6586 309.9043 Z M 737.2452 316.3689 "/>
<path stroke-width="1" stroke-linecap="butt" stroke-miterlimit="10" stroke-linejoin="miter" fill="none" stroke="#000000" d="M 737.2452 52.13506 L 728.7855 53.33224 L 731.6586 58.5996 Z M 737.2452 52.13506 "/>
<path stroke-width="1" stroke-linecap="round" stroke-dasharray="2,2" stroke-linejoin="round" fill="none" stroke="#b34400" d="M 698.7402 313.2052 L 847.7402 313.2052 L 847.7402 326.2052 L 698.7402 326.2052 Z "/>
<path stroke-width="1" stroke-linecap="round" stroke-dasharray="2,2" stroke-linejoin="round" fill="none" stroke="#b34400" d="M 144.5669 287.7165 L 229.6063 287.7165 L 229.6063 300.7165 L 144.5669 300.7165 Z "/>
<path stroke-width="1" stroke-linecap="round" stroke-dasharray="2,2" stroke-linejoin="round" fill="none" stroke="#b34400" d="M 103.4365 23.32663 L 180 23.32663 L 180 36.32663 L 103.4365 36.32663 Z "/>
</g>
</g>
</svg>
