<?xml version="1.0" encoding="UTF-8" standalone="no"?>
<!DOCTYPE svg PUBLIC "-//W3C//DTD SVG 1.1//EN" "http://www.w3.org/Graphics/SVG/1.1/DTD/svg11.dtd">
<svg xmlns:dc="http://purl.org/dc/elements/1.1/" xmlns:xl="http://www.w3.org/1999/xlink" xmlns="http://www.w3.org/2000/svg" version="1.1" viewBox="16 16 180 145" width="180" height="145">
  <defs/>
  <metadata> Produced by OmniGraffle 7.16 
    <dc:date>2020-06-24 11:58:09 +0000</dc:date>
  </metadata>
  <g id="Canvas_1" fill-opacity="1" fill="none" stroke="none" stroke-opacity="1" stroke-dasharray="none">
    <title>Canvas 1</title>
    <g id="Canvas_1: Layer 1">
      <title>Layer 1</title>
      <g id="Group_25">
        <g id="Graphic_23">
          <rect x="32" y="32" width="147.401" height="112.248" fill="#ee2d24"/>
        </g>
        <g id="Graphic_22">
          <path d="M 103.7553 78.3605 C 103.9523 78.3605 104.0703 78.2815 104.1503 78.0845 L 105.4903 73.7095 C 105.6083 73.3545 105.4903 73.1575 105.2533 73.1575 C 105.1353 73.1575 105.0563 73.1965 104.8993 73.4325 C 104.6623 73.7485 104.3463 74.2215 104.1103 74.2215 C 103.9523 74.2215 103.8733 74.1825 103.7553 74.0635 C 102.6523 72.8025 101.2323 72.4475 99.9703 72.4475 C 94.1373 72.4475 89.0513 78.6365 89.0513 84.3935 C 89.0513 87.7045 91.0613 89.5965 93.9783 89.5965 C 95.2013 89.5965 96.3043 89.3605 98.0003 88.6505 C 98.3943 88.4925 98.7873 88.3345 99.1033 88.3345 C 99.4973 88.3345 99.5373 88.8475 99.5763 89.5165 C 99.5763 89.7525 99.7343 89.8725 99.8923 89.8725 C 100.0493 89.8725 100.2073 89.8325 100.2863 89.6755 L 101.9413 84.8655 C 102.0993 84.4715 101.9033 84.2745 101.6663 84.2745 C 101.4293 84.2745 101.2713 84.3935 101.0753 84.7085 C 99.8133 86.8365 96.7383 88.4925 94.2543 88.4925 C 92.3223 88.4925 91.4553 87.0335 91.4553 84.9445 C 91.4553 79.9375 95.9893 73.5125 99.8523 73.5125 C 101.8633 73.5125 103.4003 74.7335 103.4003 77.2965 C 103.4003 77.4935 103.3613 77.7695 103.3613 77.9665 C 103.3613 78.2035 103.5193 78.3605 103.7553 78.3605 Z" fill="white"/>
        </g>
        <g id="Graphic_21">
          <path d="M 111.7592 77.73 C 112.6652 77.73 113.0592 78.44 113.0592 79.464 C 113.0592 82.539 109.9052 88.374 107.6192 88.374 C 106.7122 88.374 106.3182 87.743 106.3182 86.719 C 106.3182 83.367 109.4722 77.73 111.7592 77.73 M 111.6402 76.744 C 107.8952 76.744 104.7412 81.239 104.7412 85.773 C 104.7412 87.783 105.7662 89.439 107.6982 89.439 C 111.4832 89.439 114.6362 84.55 114.6362 80.411 C 114.6362 78.4 113.6112 76.744 111.6402 76.744" fill="white"/>
        </g>
        <g id="Graphic_20">
          <path d="M 121.26 73.7094 C 121.26 73.7874 121.22 73.9454 121.141 74.1034 C 119.131 78.7554 117.2 83.1304 115.267 87.7834 C 115.15 88.0594 114.991 88.4934 114.991 88.8084 C 114.991 89.1624 115.308 89.5174 115.74 89.5174 C 116.016 89.5174 116.371 89.4784 116.687 89.3604 C 117.909 88.9264 118.894 88.2564 119.722 87.2694 C 119.801 87.1914 119.88 87.0734 119.88 86.9144 C 119.88 86.7194 119.801 86.6004 119.643 86.6004 C 119.564 86.6004 119.486 86.6394 119.367 86.7194 C 118.973 86.9944 118.461 87.5074 117.594 87.9804 C 117.515 88.0194 117.356 88.0984 117.278 88.0984 C 117.2 88.0984 117.16 88.0594 117.16 87.9804 C 117.16 87.8614 117.2 87.7834 117.238 87.6654 L 123.466 73.2754 C 123.586 72.9994 123.625 72.8414 123.625 72.6834 C 123.625 72.5264 123.507 72.4474 123.31 72.4474 C 122.994 72.4474 122.404 72.4864 121.93 72.5264 C 121.536 72.5654 120.629 72.6044 120.038 72.6834 C 119.801 72.7234 119.643 72.8814 119.643 73.0384 C 119.643 73.2354 119.801 73.3544 119.998 73.3544 C 120.313 73.3934 120.827 73.4324 121.102 73.5124 C 121.22 73.5514 121.26 73.6304 121.26 73.7094 Z" fill="white"/>
        </g>
        <g id="Graphic_19">
          <path d="M 127.7252 73.7094 C 127.7252 73.7874 127.6862 73.9454 127.6072 74.1034 C 125.5962 78.7554 123.6642 83.1304 121.7322 87.7834 C 121.6152 88.0594 121.4572 88.4934 121.4572 88.8084 C 121.4572 89.1624 121.7732 89.5174 122.2062 89.5174 C 122.4822 89.5174 122.8362 89.4784 123.1512 89.3604 C 124.3752 88.9264 125.3602 88.2564 126.1882 87.2694 C 126.2672 87.1914 126.3452 87.0734 126.3452 86.9144 C 126.3452 86.7194 126.2672 86.6004 126.1082 86.6004 C 126.0302 86.6004 125.9512 86.6394 125.8332 86.7194 C 125.4392 86.9944 124.9262 87.5074 124.0592 87.9804 C 123.9802 88.0194 123.8222 88.0984 123.7432 88.0984 C 123.6642 88.0984 123.6252 88.0594 123.6252 87.9804 C 123.6252 87.8614 123.6642 87.7834 123.7042 87.6654 L 129.9322 73.2754 C 130.0512 72.9994 130.0912 72.8414 130.0912 72.6834 C 130.0912 72.5264 129.9722 72.4474 129.7752 72.4474 C 129.4602 72.4474 128.8692 72.4864 128.3962 72.5264 C 128.0012 72.5654 127.0942 72.6044 126.5022 72.6834 C 126.2672 72.7234 126.1082 72.8814 126.1082 73.0384 C 126.1082 73.2354 126.2672 73.3544 126.4632 73.3544 C 126.7792 73.3934 127.2922 73.4324 127.5682 73.5124 C 127.6862 73.5514 127.7252 73.6304 127.7252 73.7094 Z" fill="white"/>
        </g>
        <g id="Graphic_18">
          <path d="M 134.5849 82.1065 C 133.4809 82.4615 132.4559 82.7375 131.7859 82.8155 C 132.5349 81.3175 133.3629 80.2145 134.2699 79.3065 C 134.7819 78.7555 135.6489 78.0455 136.4779 78.0455 C 137.0689 78.0455 137.3849 78.4005 137.3849 79.0705 C 137.3849 80.4505 136.2009 81.5935 134.5849 82.1065 M 136.1609 86.7965 C 136.2409 86.6785 136.3199 86.5615 136.3199 86.4025 C 136.3199 86.2055 136.1609 86.0485 135.9649 86.0485 C 135.8469 86.0485 135.7279 86.1275 135.6489 86.2055 C 134.8609 87.0335 133.7179 88.0985 132.3379 88.0985 C 131.3129 88.0985 130.7209 87.3495 130.7209 86.1275 C 130.7209 85.2595 131.0359 84.4325 131.3129 83.8015 C 132.1809 83.6435 133.8759 83.2885 134.7429 83.0125 C 137.6199 82.1065 139.1179 80.6465 139.1179 78.8345 C 139.1179 77.6125 138.2509 77.0605 137.0299 77.0605 C 133.4809 77.0605 128.6319 81.9485 128.6319 86.6785 C 128.6319 88.2955 129.6959 89.4385 131.3129 89.4385 C 133.5199 89.4385 134.9399 88.3345 136.1609 86.7965" fill="white"/>
        </g>
        <g id="Graphic_17">
          <path d="M 155.7941 82.1065 C 154.6901 82.4615 153.6661 82.7375 152.9961 82.8155 C 153.7451 81.3175 154.5731 80.2145 155.4791 79.3065 C 155.9921 78.7555 156.8581 78.0455 157.6861 78.0455 C 158.2781 78.0455 158.5931 78.4005 158.5931 79.0705 C 158.5931 80.4505 157.4111 81.5935 155.7941 82.1065 M 157.3721 86.7965 C 157.4501 86.6785 157.5301 86.5615 157.5301 86.4025 C 157.5301 86.2055 157.3721 86.0485 157.1741 86.0485 C 157.0571 86.0485 156.9381 86.1275 156.8581 86.2055 C 156.0711 87.0335 154.9271 88.0985 153.5471 88.0985 C 152.5231 88.0985 151.9321 87.3495 151.9321 86.1275 C 151.9321 85.2595 152.2461 84.4325 152.5231 83.8015 C 153.3901 83.6435 155.0851 83.2885 155.9531 83.0125 C 158.8301 82.1065 160.3291 80.6465 160.3291 78.8345 C 160.3291 77.6125 159.4611 77.0605 158.2391 77.0605 C 154.6901 77.0605 149.8421 81.9485 149.8421 86.6785 C 149.8421 88.2955 150.8671 89.4385 152.5231 89.4385 C 154.7291 89.4385 156.1491 88.3345 157.3721 86.7965" fill="white"/>
        </g>
        <g id="Graphic_16">
          <path d="M 141.8786 92.7508 C 139.7496 92.7508 138.5266 91.8038 138.5266 90.7798 C 138.5266 89.5578 139.9066 88.6888 141.2876 88.2168 C 141.8786 88.5318 142.7446 88.9268 143.4166 89.3208 C 144.5196 89.9898 144.7176 90.3448 144.7176 90.9368 C 144.7176 92.0008 143.6126 92.7508 141.8786 92.7508 M 143.8096 83.8008 C 143.1796 83.8008 142.8636 83.2488 142.8636 82.4218 C 142.8636 81.7508 143.0996 80.9238 143.6526 79.9378 C 144.4406 78.5178 145.4666 77.6898 146.4506 77.6898 C 147.0816 77.6898 147.4766 78.0848 147.4766 78.7948 C 147.4766 79.5438 147.2396 80.4898 146.6486 81.5538 C 145.5446 83.4068 144.6376 83.8008 143.8096 83.8008 M 149.0136 79.6618 C 149.0136 78.9528 148.8956 78.6758 148.8956 78.3998 C 148.8956 78.1248 149.2116 77.9268 149.6846 77.9268 C 150.1976 77.9268 150.5906 78.3208 151.0636 78.3208 C 151.4586 78.3208 151.7736 78.0058 151.7736 77.5328 C 151.7736 77.0598 151.4186 76.8228 150.8676 76.8228 C 150.3536 76.8228 149.7626 76.9808 149.1326 77.3758 C 148.9736 77.4538 148.8166 77.5718 148.6196 77.5718 C 148.5406 77.5718 148.3826 77.5328 148.2646 77.4538 C 147.7926 77.1788 147.2786 76.9808 146.2936 76.9808 C 144.9916 76.9808 143.2976 77.6508 142.1926 79.1498 C 141.4056 80.2528 141.2476 80.9628 141.2476 81.7508 C 141.2476 82.4608 141.4846 83.0528 141.6806 83.4068 C 141.7206 83.4858 141.8386 83.6038 141.8386 83.6828 C 141.8386 83.8408 141.6016 83.9188 141.1286 84.0378 C 140.3016 84.2348 139.2366 84.7858 139.2366 85.8118 C 139.2366 86.6008 139.6706 87.0738 140.4986 87.6658 C 138.9996 88.0588 136.5166 89.0448 136.5166 90.7398 C 136.5166 92.3958 138.6066 93.6568 141.7206 93.6568 C 144.7176 93.6568 146.8056 92.3958 146.8056 90.4248 C 146.8056 89.3598 145.8206 88.4138 144.0856 87.5468 C 142.3116 86.6788 141.0896 86.0878 141.0896 85.4178 C 141.0896 84.8268 141.5626 84.5498 142.4296 84.5498 C 142.9036 84.5498 143.5346 84.7088 144.0076 84.7088 C 145.4266 84.7088 147.3576 84.2738 148.5406 81.7508 C 148.8566 81.0418 149.0136 80.3328 149.0136 79.6618" fill="white"/>
        </g>
        <g id="Graphic_15">
          <rect x="51.404004" y="119.66" width="108.541" height="1.429" fill="white"/>
        </g>
        <g id="Graphic_14">
          <rect x="51.404004" y="124.738" width="108.541" height="2.777" fill="white"/>
        </g>
        <g id="Graphic_13">
          <path d="M 140.0302 63.2337 C 140.0302 61.6067 141.2202 61.4487 142.2512 61.3687 C 142.4502 61.3687 142.5682 61.1707 142.5682 60.9327 C 142.5682 60.7347 142.4502 60.5757 142.1732 60.5757 L 134.1582 60.5757 C 133.8812 60.5757 133.6822 60.7347 133.6822 60.9717 C 133.6822 61.2497 133.8812 61.4487 134.1582 61.4487 C 135.7462 61.5667 137.0142 61.8447 137.0142 63.3917 L 137.0142 65.8127 C 137.0142 66.4867 136.7762 66.8437 136.3802 67.1607 C 134.9122 68.2327 133.4042 68.3907 132.1752 68.3907 C 127.1762 68.3907 124.9152 64.2257 124.9152 59.9807 C 124.9152 54.2687 128.5252 51.2137 132.4922 51.2137 C 136.1422 51.2137 138.5222 52.7997 139.8702 55.5367 C 140.0302 55.8547 140.1882 55.9737 140.4272 55.9737 C 140.6252 55.9737 140.7832 55.7757 140.7832 55.5367 L 140.7832 51.2527 C 140.7832 51.0147 140.6252 50.8557 140.4272 50.8557 C 140.1882 50.8557 140.0692 51.0147 139.9902 51.2527 C 139.8702 51.7287 139.6332 52.0457 139.2752 52.0457 C 139.0382 52.0457 138.6802 51.8477 138.4432 51.6897 C 136.8172 50.7367 135.4282 50.0227 132.4922 50.0227 C 127.6522 50.0227 121.6222 52.6807 121.6222 59.8617 C 121.6222 67.3197 127.2552 69.6207 132.1752 69.6207 C 136.5782 69.6207 139.3162 67.4387 140.0302 66.8437 Z" fill="white"/>
        </g>
        <g id="Graphic_12">
          <path d="M 144.9098 52.9985 C 145.2268 52.9985 145.6238 52.8405 145.7428 52.5225 C 145.7818 52.6025 145.8218 52.7205 145.8218 52.8405 C 145.8218 53.6325 145.1868 54.3875 144.1158 54.8235 C 143.9578 54.9025 143.8388 55.0215 143.8388 55.2205 C 143.8388 55.4175 144.0368 55.5375 144.2748 55.4975 C 146.0198 55.1805 146.9718 53.5935 146.9718 52.0855 C 146.9718 50.7365 146.2198 50.0235 145.1478 50.0235 C 144.4338 50.0235 143.4818 50.3795 143.4818 51.5705 C 143.4818 52.5225 144.1958 52.9985 144.9098 52.9985 Z" fill="white"/>
        </g>
        <g id="Graphic_11">
          <path d="M 159.7069 54.7442 C 159.9059 54.7442 160.0639 54.5852 160.0239 54.3472 L 159.4299 50.1812 C 159.3899 49.9042 159.2699 49.8242 159.0719 49.8242 C 158.9529 49.8242 158.8339 49.9042 158.7549 50.1032 C 158.6359 50.4192 158.4369 50.7372 158.0409 50.7372 C 157.3669 50.7372 156.4929 50.0232 154.5899 50.0232 C 152.1289 50.0232 148.8759 51.2922 148.8759 54.7032 C 148.8759 58.2742 151.7329 59.5442 154.1929 60.4172 C 156.8899 61.3692 158.8739 62.0042 158.8739 64.7012 C 158.8739 67.3592 156.8109 68.3512 154.7479 68.3512 C 152.5659 68.3512 150.1059 67.3192 149.1539 64.1062 C 149.0749 63.8292 148.9559 63.6702 148.6779 63.6702 C 148.3999 63.6702 148.2419 63.8292 148.2419 64.1862 L 148.2419 68.7882 C 148.2419 69.0662 148.3999 69.2242 148.6379 69.2242 C 148.7969 69.2242 148.9159 69.1452 149.0349 68.9462 C 149.1539 68.6692 149.3919 68.2322 149.7889 68.2322 C 150.5829 68.2322 152.1289 69.6212 154.9459 69.6212 C 157.6039 69.6212 161.6509 68.6282 161.6509 63.8292 C 161.6509 61.8452 160.8579 59.2672 156.0169 57.8782 C 152.6049 56.8862 151.5339 55.6562 151.5339 53.9502 C 151.5339 52.4432 152.5659 51.2132 154.7879 51.2132 C 156.4139 51.2132 158.1209 51.9672 159.3109 54.4262 C 159.4299 54.6642 159.5489 54.7442 159.7069 54.7442 Z" fill="white"/>
        </g>
        <g id="Graphic_10">
          <path d="M 93.0582 53.3158 C 93.0582 51.8078 93.4942 51.0548 95.0022 50.8558 C 95.2802 50.8168 95.4392 50.6978 95.4392 50.4598 C 95.4392 50.2608 95.2802 50.1418 95.0022 50.1418 L 88.0202 50.1418 C 87.7422 50.1418 87.5832 50.2608 87.5832 50.4598 C 87.5832 50.6978 87.7422 50.8168 88.0202 50.8558 C 89.5272 51.0548 89.9642 51.8078 89.9642 53.3158 L 89.9642 66.3278 C 89.9642 67.8358 89.5272 68.5888 88.0202 68.7878 C 87.7422 68.8278 87.5832 68.9458 87.5832 69.1848 C 87.5832 69.3828 87.7422 69.5018 88.0202 69.5018 L 95.0022 69.5018 C 95.2802 69.5018 95.4392 69.3828 95.4392 69.1848 C 95.4392 68.9458 95.2802 68.8278 95.0022 68.7878 C 93.4942 68.5888 93.0582 67.8358 93.0582 66.3278 Z" fill="white"/>
        </g>
        <g id="Graphic_9">
          <path d="M 117.5359 53.6733 C 117.6139 51.7293 117.9719 51.0543 119.4799 50.8563 C 119.7569 50.8173 119.9169 50.6983 119.9169 50.4593 C 119.9169 50.2613 119.7569 50.1423 119.4799 50.1423 L 113.4909 50.1423 C 113.3309 50.1423 113.2119 50.3003 113.2119 50.4993 C 113.2119 50.6573 113.3309 50.8173 113.5299 50.8563 C 114.7989 51.0543 115.7109 51.3323 115.8699 53.6733 C 116.0679 56.4103 116.1089 64.1463 116.1089 64.1463 L 103.6119 50.1423 L 98.6529 50.1423 C 98.3749 50.1423 98.2159 50.2613 98.2159 50.4593 C 98.2159 50.6983 98.3749 50.8173 98.6529 50.8563 C 99.4859 50.9753 100.5959 51.3713 100.5959 52.6803 C 100.5959 56.6083 100.5959 61.7663 100.4369 65.9713 C 100.3579 67.9143 100.0009 68.5893 98.4939 68.7873 C 98.2159 68.8273 98.0569 68.9463 98.0569 69.1843 C 98.0569 69.3833 98.2159 69.5023 98.4939 69.5023 L 104.4839 69.5023 C 104.6429 69.5023 104.7619 69.3423 104.7619 69.1453 C 104.7619 68.9863 104.6429 68.8273 104.4449 68.7873 C 103.1749 68.5893 102.2619 68.3123 102.1029 65.9713 C 101.9449 63.2333 101.8649 53.2363 101.8649 53.2363 L 116.4649 69.5023 L 117.3769 69.5023 C 117.3769 57.8783 117.5359 53.6733 117.5359 53.6733 Z" fill="white"/>
        </g>
        <g id="Graphic_8">
          <path d="M 60.329204 56.0534 C 60.368204 53.8314 60.726204 51.9664 65.0502 51.3714 C 65.4862 51.2924 65.7252 51.0934 65.7252 50.6974 C 65.7252 50.3794 65.4862 50.1424 65.1292 50.1424 C 62.432204 50.2614 61.242204 50.2614 57.910204 50.2614 C 55.053204 50.2614 51.403204 50.1424 50.847204 50.1424 C 50.371204 50.1424 50.094204 50.3404 50.094204 50.6974 C 50.094204 51.0144 50.332204 51.2524 50.768204 51.2924 C 52.316204 51.5304 54.696204 51.8874 54.854204 56.3704 C 54.894204 57.7594 54.934204 64.6224 54.934204 72.0804 C 54.934204 76.8804 54.894204 81.0854 54.815204 83.0294 C 54.656204 87.5134 52.276204 87.8704 50.728204 88.1074 C 50.292204 88.1474 50.054204 88.3854 50.054204 88.7034 C 50.054204 89.0594 50.332204 89.2584 50.808204 89.2584 C 51.364204 89.2584 55.013204 89.1384 57.869204 89.1384 C 61.202204 89.1384 62.868204 89.1384 65.5662 89.2584 C 65.9232 89.2584 66.1612 89.0204 66.1612 88.7034 C 66.1612 88.3064 65.9232 88.1074 65.4862 88.0284 C 61.162204 87.4334 60.487204 85.5694 60.290204 83.3474 C 60.210204 82.3954 60.130204 79.9754 60.130204 77.4364 C 60.130204 74.8974 60.171204 72.4374 60.210204 71.9214 C 60.249204 71.3264 60.567204 71.1284 60.885204 71.1284 C 61.162204 71.1284 61.439204 71.2474 61.638204 71.4064 C 64.3362 73.6674 72.6272 83.5464 77.3482 89.2584 L 87.4252 89.2584 C 87.8212 89.2584 87.9802 89.0594 87.9802 88.7424 C 87.9802 88.3854 87.7422 88.1074 87.4252 88.1074 C 85.5212 87.9094 84.3302 87.5514 81.9512 85.6484 C 79.4912 83.7044 65.6852 67.2004 65.6852 67.2004 C 66.7562 65.9714 73.1032 59.5044 76.7532 56.2114 C 81.0382 52.3234 82.7042 51.8084 84.5292 51.3714 C 84.8072 51.2924 85.0052 51.1334 85.0052 50.7764 C 85.0052 50.4194 84.7672 50.1424 84.2122 50.1424 C 83.2602 50.1424 80.4032 50.2614 78.5782 50.2614 C 75.4042 50.2614 72.7862 50.1424 72.2312 50.1424 C 71.7552 50.1424 71.3972 50.3794 71.3972 50.7764 C 71.3972 51.1334 71.7142 51.3714 72.1512 51.4514 C 72.7862 51.5704 73.3412 51.6494 73.9772 51.8874 C 74.6112 52.1254 74.9682 52.4034 74.9682 53.0784 C 74.9682 53.7124 74.6902 54.2684 74.3342 54.8234 C 73.4602 56.1724 72.4692 57.4024 70.8822 59.0684 C 67.1132 62.9554 62.472204 67.5574 60.924204 68.8274 C 60.766204 68.9464 60.647204 68.9864 60.527204 68.9864 C 60.290204 68.9864 60.210204 68.7084 60.210204 68.4314 C 60.210204 68.1134 60.249204 60.8924 60.329204 56.0534 Z" fill="white"/>
        </g>
        <g id="Graphic_7">
          <path d="M 51.442604 96.929 C 51.284604 96.929 51.165604 97.048 51.165604 97.245 C 51.165604 97.405 51.323604 97.563 51.521604 97.563 C 52.831604 97.642 53.307604 98.516 53.307604 99.784 L 53.307604 110.813 C 53.307604 112.082 52.831604 112.917 51.521604 113.034 C 51.323604 113.034 51.165604 113.193 51.165604 113.353 C 51.165604 113.551 51.284604 113.67 51.442604 113.67 L 65.4466 113.67 L 66.3196 108.988 C 66.3996 108.671 66.2406 108.473 66.0026 108.473 C 65.8036 108.473 65.6456 108.592 65.5666 108.79 C 64.3366 112.202 62.392604 112.598 59.495604 112.598 C 56.559604 112.598 55.925604 112.122 55.925604 110.774 L 55.925604 99.348 C 55.925604 98 57.076604 97.642 57.909604 97.602 C 58.147604 97.563 58.266604 97.444 58.266604 97.285 C 58.266604 97.087 58.107604 96.929 57.869604 96.929 Z" fill="white"/>
        </g>
        <g id="Graphic_6">
          <path d="M 70.3659 105.1407 C 70.3659 101.0147 72.3499 97.8807 75.8809 97.8807 C 79.0149 97.8807 81.4739 100.8567 81.4739 105.1407 C 81.4739 110.4167 79.2529 112.7167 75.8809 112.7167 C 72.5879 112.7167 70.3659 109.5447 70.3659 105.1407 M 75.8809 113.7897 C 80.7999 113.7897 84.2909 110.3767 84.2909 105.1407 C 84.2909 100.5387 80.8799 96.8097 75.8809 96.8097 C 71.0409 96.8097 67.5499 100.6177 67.5499 105.1407 C 67.5499 110.0597 70.8419 113.7897 75.8809 113.7897" fill="white"/>
        </g>
        <g id="Graphic_5">
          <path d="M 102.0638 113.6697 L 102.1428 99.7847 C 102.1428 98.5157 102.6188 97.7617 103.9288 97.5637 C 104.1668 97.5237 104.2848 97.4047 104.2848 97.2457 C 104.2848 97.0477 104.1668 96.9287 104.0078 96.9287 L 98.7708 96.9287 C 98.5728 96.9287 98.4538 97.0477 98.4538 97.2457 C 98.4538 97.4047 98.5728 97.5237 98.8108 97.5637 C 100.1198 97.8007 100.7548 98.1977 100.7938 99.7847 L 100.9928 109.3067 L 90.4398 96.9287 L 85.9568 96.9287 C 85.7588 96.9287 85.6398 97.0477 85.6398 97.2457 C 85.6398 97.4447 85.7588 97.5637 85.9968 97.6027 C 87.1078 97.7617 87.6228 98.1187 87.6228 99.1897 L 87.5438 110.8137 C 87.5438 112.0827 87.0688 112.8367 85.7588 113.0347 C 85.5208 113.0737 85.4018 113.1927 85.4018 113.3527 C 85.4018 113.5507 85.4808 113.6697 85.6798 113.6697 L 90.9158 113.6697 C 91.1148 113.6697 91.2338 113.5507 91.2338 113.3527 C 91.2338 113.1927 91.1148 113.0737 90.8768 113.0347 C 89.9638 112.8767 88.9328 112.6387 88.8928 110.8137 L 88.7738 99.1097 L 101.1518 113.6697 Z" fill="white"/>
        </g>
        <g id="Graphic_4">
          <path d="M 110.4346 99.6256 C 110.4346 98.1186 111.2276 97.9996 113.3306 97.9996 C 116.8616 97.9996 120.4316 99.7046 120.4316 105.0606 C 120.4316 110.3376 117.4176 112.5976 113.4906 112.5976 L 112.6156 112.5976 C 111.5056 112.5976 110.4346 112.2816 110.4346 110.2586 Z M 105.9116 96.9286 C 105.7536 96.9286 105.6346 97.0476 105.6346 97.2456 C 105.6346 97.4446 105.7926 97.5636 105.9916 97.5636 C 107.3006 97.6816 107.7766 98.5156 107.7766 99.7846 L 107.7766 110.8136 C 107.7766 112.0826 107.3006 112.9166 105.9916 113.0346 C 105.7536 113.0736 105.6346 113.1926 105.6346 113.3526 C 105.6346 113.5506 105.7536 113.6696 105.9116 113.6696 L 113.9656 113.6696 C 117.4566 113.6696 123.2486 111.8846 123.2486 105.1406 C 123.2486 99.1496 118.6466 96.9286 113.8866 96.9286 Z" fill="white"/>
        </g>
        <g id="Graphic_3">
          <path d="M 128.2865 105.1407 C 128.2865 101.0147 130.2715 97.8807 133.8005 97.8807 C 136.9355 97.8807 139.3945 100.8567 139.3945 105.1407 C 139.3945 110.4167 137.1735 112.7167 133.8005 112.7167 C 130.5085 112.7167 128.2865 109.5447 128.2865 105.1407 M 133.8005 113.7897 C 138.7205 113.7897 142.2115 110.3767 142.2115 105.1407 C 142.2115 100.5387 138.8005 96.8097 133.8005 96.8097 C 128.9615 96.8097 125.4705 100.6177 125.4705 105.1407 C 125.4705 110.0597 128.7635 113.7897 133.8005 113.7897" fill="white"/>
        </g>
        <g id="Graphic_2">
          <path d="M 159.9448 113.6697 L 160.0238 99.7847 C 160.0238 98.5157 160.5008 97.7617 161.8098 97.5637 C 162.0488 97.5237 162.1668 97.4047 162.1668 97.2457 C 162.1668 97.0477 162.0488 96.9287 161.8888 96.9287 L 156.6518 96.9287 C 156.4538 96.9287 156.3358 97.0477 156.3358 97.2457 C 156.3358 97.4047 156.4538 97.5237 156.6918 97.5637 C 158.0018 97.8007 158.6358 98.1977 158.6748 99.7847 L 158.8738 109.3067 L 148.3208 96.9287 L 143.8388 96.9287 C 143.6398 96.9287 143.5208 97.0477 143.5208 97.2457 C 143.5208 97.4447 143.6398 97.5637 143.8778 97.6027 C 144.9888 97.7617 145.5048 98.1187 145.5048 99.1897 L 145.4248 110.8137 C 145.4248 112.0827 144.9498 112.8367 143.6398 113.0347 C 143.4018 113.0737 143.2828 113.1927 143.2828 113.3527 C 143.2828 113.5507 143.3618 113.6697 143.5598 113.6697 L 148.7968 113.6697 C 148.9958 113.6697 149.1138 113.5507 149.1138 113.3527 C 149.1138 113.1927 148.9958 113.0737 148.7578 113.0347 C 147.8448 112.8767 146.8138 112.6387 146.7738 110.8137 L 146.6548 99.1097 L 159.0328 113.6697 Z" fill="white"/>
        </g>
      </g>
    </g>
  </g>
</svg>
